<svg xmlns="http://www.w3.org/2000/svg" width="34.841" height="23.894" viewBox="0 0 34.841 23.894">
  <path id="video-svgrepo-com" d="M26.719,13.3l4.7-2.821c1.447-.868,2.171-1.3,2.766-1.247a1.824,1.824,0,0,1,1.3.737c.354.482.354,1.326.354,3.013v7.933c0,1.687,0,2.531-.354,3.013a1.824,1.824,0,0,1-1.3.737c-.6.055-1.319-.379-2.766-1.247l-4.7-2.821m-17.88,7.3H20.88c2.044,0,3.066,0,3.846-.4A3.648,3.648,0,0,0,26.321,25.9c.4-.781.4-1.8.4-3.846V11.838c0-2.044,0-3.065-.4-3.846A3.649,3.649,0,0,0,24.726,6.4c-.781-.4-1.8-.4-3.846-.4H8.838c-2.044,0-3.065,0-3.846.4A3.649,3.649,0,0,0,3.4,7.992c-.4.781-.4,1.8-.4,3.846V22.056c0,2.044,0,3.066.4,3.846A3.649,3.649,0,0,0,4.992,27.5C5.773,27.894,6.795,27.894,8.838,27.894Z" transform="translate(-2 -5)" fill="none" stroke="#f2987b" stroke-linecap="round" stroke-linejoin="round" stroke-width="2"/>
</svg>
