<svg xmlns="http://www.w3.org/2000/svg" width="26.601" height="23.131" viewBox="0 0 26.601 23.131">
  <path id="future-svgrepo-com" d="M1,13.565a11.566,11.566,0,0,1,23.122-.47l1.5-1.5a1.157,1.157,0,0,1,1.636,1.636l-3.47,3.47a1.157,1.157,0,0,1-1.636,0l-3.47-3.47a1.157,1.157,0,0,1,1.636-1.636l1.482,1.482a9.252,9.252,0,1,0-2.043,6.307,1.157,1.157,0,0,1,1.8,1.455A11.566,11.566,0,0,1,1,13.565ZM13.722,6.626a1.157,1.157,0,1,0-2.313,0v6.939a1.157,1.157,0,0,0,.339.818l3.47,3.47a1.157,1.157,0,0,0,1.636-1.636l-3.131-3.131Z" transform="translate(-1 -2)" fill="#f2987b" fill-rule="evenodd"/>
</svg>
