<svg xmlns="http://www.w3.org/2000/svg" width="26.301" height="26.309" viewBox="0 0 26.301 26.309">
  <path id="verify-svgrepo-com" d="M27.724,13.494l-1.789-2.078a2.915,2.915,0,0,1-.618-1.657V7.523a2.548,2.548,0,0,0-2.538-2.538H20.543a2.95,2.95,0,0,1-1.657-.618L16.808,2.578a2.65,2.65,0,0,0-3.314,0l-2.065,1.8a3.034,3.034,0,0,1-1.657.6H7.5A2.548,2.548,0,0,0,4.958,7.523V9.772a2.993,2.993,0,0,1-.6,1.644L2.578,13.507a2.648,2.648,0,0,0,0,3.288l1.775,2.091a2.993,2.993,0,0,1,.6,1.644v2.249A2.548,2.548,0,0,0,7.5,25.317H9.772a2.95,2.95,0,0,1,1.657.618l2.078,1.789a2.65,2.65,0,0,0,3.314,0L18.9,25.935a2.915,2.915,0,0,1,1.657-.618h2.236a2.548,2.548,0,0,0,2.538-2.538V20.543a2.95,2.95,0,0,1,.618-1.657l1.789-2.078A2.668,2.668,0,0,0,27.724,13.494Zm-7.1-.829L14.27,19.017a.984.984,0,0,1-1.394,0L9.693,15.835a.986.986,0,0,1,1.394-1.394l2.486,2.486,5.655-5.655a.986.986,0,1,1,1.394,1.394Z" transform="translate(-2.006 -1.996)" fill="#f2987b"/>
</svg>
